<?xml version="1.0" encoding="utf-8"?>
<!-- Generator: Adobe Illustrator 22.1.0, SVG Export Plug-In . SVG Version: 6.00 Build 0)  -->
<svg version="1.1" id="Livello_1" xmlns="http://www.w3.org/2000/svg" xmlns:xlink="http://www.w3.org/1999/xlink" x="0px" y="0px"
	 viewBox="0 0 66 66" style="enable-background:new 0 0 66 66;" xml:space="preserve">
<title></title>
<path class="st0" d="M1,34c0,17.7,14.3,32,32,32s32-14.3,32-32S50.7,2,33,2S1,16.3,1,34z"/>
<g id="Shopping_Bag">
	<path class="st1" d="M26,26v-2.8l0,0c0.2-3.6,3.3-6.3,6.9-6.1c3.3,0.2,6,2.8,6.1,6.1V26"/>
	<path class="st2" d="M39.2,51H25.9c-3.3,0.1-6.1-2.4-6.4-5.8l-1.4-18.8c0-0.2,0.1-0.4,0.3-0.5h28.3c0.2,0.1,0.3,0.3,0.3,0.5
		l-1.4,18.7C45.3,48.5,42.5,51,39.2,51z"/>
</g>
</svg>
