<svg version="1.1" xmlns="http://www.w3.org/2000/svg" xmlns:xlink="http://www.w3.org/1999/xlink" x="0px" y="0px" viewBox="0 0 45 45">
	<g>
		<path style="fill:#0AA5DF;" d="M17,36c-2.2,0-4,1.8-4,4s1.8,4,4,4s4-1.8,4-4S19.2,36,17,36z M17,42c-1.1,0-2-0.9-2-2s0.9-2,2-2
			s2,0.9,2,2S18.1,42,17,42z"/>
		<path style="fill:#0AA5DF;" d="M35,36c-2.2,0-4,1.8-4,4s1.8,4,4,4s4-1.8,4-4S37.2,36,35,36z M35,42c-1.1,0-2-0.9-2-2s0.9-2,2-2
				s2,0.9,2,2S36.1,42,35,42z"/>
		<path style="fill:#0AA5DF;" d="M41.6,7.4C40.9,6.5,39.7,6,38.5,6H10.8l-0.4-2.6c-0.3-1.9-2-3.4-4-3.4H0v2h6.4c1,0,1.9,0.7,2,1.7
					l4.2,27.1c0.4,1.9,2.1,3.3,4,3.3H38v-2H16.6c-1,0-1.8-0.7-2-1.7L14.2,28h22.2c1.9,0,3.6-1.4,4-3.5l2.1-14
					C42.7,9.4,42.4,8.3,41.6,7.4z M40.5,10.3l-2.1,14c-0.2,1.1-1,1.8-2,1.8H13.9l-2.8-18h27.4c0.6,0,1.2,0.3,1.6,0.7
					C40.5,9.1,40.6,9.7,40.5,10.3z"/>
	</g>
</svg>
