<?xml version="1.0" ?><!DOCTYPE svg  PUBLIC '-//W3C//DTD SVG 1.1//EN'  'http://www.w3.org/Graphics/SVG/1.1/DTD/svg11.dtd'><svg height="43.3492mm" style="shape-rendering:geometricPrecision; text-rendering:geometricPrecision; image-rendering:optimizeQuality; fill-rule:evenodd; clip-rule:evenodd" version="1.1" viewBox="0 0 4335 4335" width="43.3492mm" xml:space="preserve" xmlns="http://www.w3.org/2000/svg" xmlns:xlink="http://www.w3.org/1999/xlink"><defs><style type="text/css">
   <![CDATA[
    .fil1 {fill:#BCBCBC;fill-rule:nonzero}
    .fil0 {fill:url(#id0)}
    .fil2 {fill:url(#id1);fill-rule:nonzero}
   ]]>
  </style><linearGradient gradientUnits="userSpaceOnUse" id="id0" x1="2163.54" x2="2163.54" y1="0.64" y2="4335.56"><stop offset="0" style="stop-color:#FCCE15"/><stop offset="0.121569" style="stop-color:#FFD800"/><stop offset="0.290196" style="stop-color:#FF7E00"/><stop offset="0.458824" style="stop-color:#FF4211"/><stop offset="0.670588" style="stop-color:#EB368F"/><stop offset="0.909804" style="stop-color:#2E40F0"/><stop offset="1" style="stop-color:#2E40F0"/></linearGradient><linearGradient gradientUnits="userSpaceOnUse" id="id1" x1="2182.28" x2="2182.28" y1="616.71" y2="3688.57"><stop offset="0" style="stop-color:white"/><stop offset="0.988235" style="stop-color:#F2F2F2"/><stop offset="1" style="stop-color:#E5E5E5"/></linearGradient></defs><g id="Warstwa_x0020_1"><rect class="fil0" height="4335" id="Prostokąt_x0020_3" width="4335" x="-4" y="1"/><path class="fil1" d="M2193 959c410,0 459,2 621,9 150,7 231,32 285,53 72,28 123,61 177,115 54,54 87,105 115,177 21,54 46,135 53,285 7,162 9,211 9,621 0,410 -2,459 -9,621 -7,150 -32,231 -53,285 -28,72 -61,123 -115,177 -54,54 -105,87 -177,115 -54,21 -135,46 -285,53 -162,7 -211,9 -621,9 -410,0 -459,-2 -621,-9 -150,-7 -231,-32 -285,-53 -72,-28 -123,-61 -177,-115 -54,-54 -87,-105 -115,-177 -21,-54 -46,-135 -53,-285 -7,-162 -9,-211 -9,-621 0,-410 2,-459 9,-621 7,-150 32,-231 53,-285 28,-72 61,-123 115,-177 54,-54 105,-87 177,-115 54,-21 135,-46 285,-53 162,-7 211,-9 621,-9zm1536 1297l0 -76c0,-382 -2,-437 -9,-595 -7,-163 -33,-275 -71,-373 -39,-101 -92,-187 -177,-272 -85,-85 -171,-138 -272,-177 -98,-38 -209,-64 -373,-71 -159,-7 -213,-9 -595,-9l-76 0c-382,0 -437,2 -595,9 -163,7 -275,33 -373,71 -101,39 -187,92 -272,177 -85,85 -138,171 -177,272 -38,98 -64,209 -71,373 -7,164 -9,216 -9,633 0,417 2,469 9,633 7,163 33,275 71,373 39,101 92,187 177,272 85,85 171,138 272,177 98,38 209,64 373,71 164,7 216,9 633,9 417,0 469,-2 633,-9 163,-7 275,-33 373,-71 101,-39 187,-92 272,-177 85,-85 138,-171 177,-272 38,-98 64,-209 71,-373 7,-159 9,-213 9,-595zm-1536 -827c-436,0 -789,353 -789,789 0,436 353,789 789,789 436,0 789,-353 789,-789 0,-436 -353,-789 -789,-789zm0 1301c-283,0 -512,-229 -512,-512 0,-283 229,-512 512,-512 283,0 512,229 512,512 0,283 -229,512 -512,512zm1004 -1332c0,102 -83,184 -184,184 -102,0 -184,-83 -184,-184 0,-102 83,-184 184,-184 102,0 184,83 184,184z"/><path class="fil2" d="M2182 893c410,0 459,2 621,9 150,7 231,32 285,53 72,28 123,61 177,115 54,54 87,105 115,177 21,54 46,135 53,285 7,162 9,211 9,621 0,410 -2,459 -9,621 -7,150 -32,231 -53,285 -28,72 -61,123 -115,177 -54,54 -105,87 -177,115 -54,21 -135,46 -285,53 -162,7 -211,9 -621,9 -410,0 -459,-2 -621,-9 -150,-7 -231,-32 -285,-53 -72,-28 -123,-61 -177,-115 -54,-54 -87,-105 -115,-177 -21,-54 -46,-135 -53,-285 -7,-162 -9,-211 -9,-621 0,-410 2,-459 9,-621 7,-150 32,-231 53,-285 28,-72 61,-123 115,-177 54,-54 105,-87 177,-115 54,-21 135,-46 285,-53 162,-7 211,-9 621,-9zm1536 1297l0 -76c0,-382 -2,-437 -9,-595 -7,-163 -33,-275 -71,-373 -39,-101 -92,-187 -177,-272 -85,-85 -171,-138 -272,-177 -98,-38 -209,-64 -373,-71 -159,-7 -213,-9 -595,-9l-76 0c-382,0 -437,2 -595,9 -163,7 -275,33 -373,71 -101,39 -187,92 -272,177 -85,85 -138,171 -177,272 -38,98 -64,209 -71,373 -7,164 -9,216 -9,633 0,417 2,469 9,633 7,163 33,275 71,373 39,101 92,187 177,272 85,85 171,138 272,177 98,38 209,64 373,71 164,7 216,9 633,9 417,0 469,-2 633,-9 163,-7 275,-33 373,-71 101,-39 187,-92 272,-177 85,-85 138,-171 177,-272 38,-98 64,-209 71,-373 7,-159 9,-213 9,-595zm-1536 -827c-436,0 -789,353 -789,789 0,436 353,789 789,789 436,0 789,-353 789,-789 0,-436 -353,-789 -789,-789zm0 1301c-283,0 -512,-229 -512,-512 0,-283 229,-512 512,-512 283,0 512,229 512,512 0,283 -229,512 -512,512zm1004 -1332c0,102 -83,184 -184,184 -102,0 -184,-83 -184,-184 0,-102 83,-184 184,-184 102,0 184,83 184,184z"/></g></svg>