<?xml version="1.0" encoding="utf-8"?>
<!-- Generator: Adobe Illustrator 22.1.0, SVG Export Plug-In . SVG Version: 6.00 Build 0)  -->
<svg version="1.1" id="icon-ks" xmlns="http://www.w3.org/2000/svg" xmlns:xlink="http://www.w3.org/1999/xlink" x="0px" y="0px"
	 viewBox="0 0 612 792" style="enable-background:new 0 0 612 792;" xml:space="preserve">
<style type="text/css">
	.st0{fill:#0AA5DF;}
</style>
<path class="st0" d="M333.6,88.1h-55.2c-5.8,0-10.4,4.7-10.4,10.5V310c0,5.8,4.7,10.5,10.4,10.5h55.2c5.8,0,10.5-4.7,10.5-10.5V98.6
	C344.1,92.8,339.4,88.1,333.6,88.1C333.6,88.1,333.6,88.1,333.6,88.1z M610.2,321.3l-0.5-1.6c-6.4-20.6-27.4-31.9-47-25.2l-139,47.5
	c-19.6,6.7-30.3,28.9-24,49.5l0.5,1.6c6.4,20.6,27.4,31.9,47,25.2l139-47.5C605.8,364.1,616.5,342,610.2,321.3z M416.6,516.1
	c-12.1-17.5-35.4-21.4-52.1-8.7l-1.3,1c-16.7,12.8-20.4,37.3-8.3,54.9l85.9,124.4c12.1,17.5,35.4,21.4,52.1,8.7l1.3-1
	c16.7-12.8,20.4-37.3,8.3-54.9L416.6,516.1z M211.8,393.2l0.5-1.6c6.4-20.6-4.4-42.8-24-49.5l-139-47.5c-19.6-6.7-40.6,4.6-47,25.2
	l-0.5,1.6c-6.4,20.6,4.4,42.8,24,49.5l138.9,47.5C184.3,425.1,205.4,413.8,211.8,393.2L211.8,393.2z M248.7,508.4l-1.3-1
	c-16.6-12.8-40-8.9-52.1,8.7l-85.9,124.4c-12.1,17.5-8.4,42.1,8.3,54.9l1.2,1c16.7,12.8,40,8.9,52.1-8.7L257,563.3
	C269.1,545.7,265.4,521.2,248.7,508.4L248.7,508.4z"/>
</svg>
