<?xml version="1.0" encoding="utf-8"?>
<!-- Generator: Adobe Illustrator 22.1.0, SVG Export Plug-In . SVG Version: 6.00 Build 0)  -->
<svg version="1.1" id="Слой_1" xmlns="http://www.w3.org/2000/svg" xmlns:xlink="http://www.w3.org/1999/xlink" x="0px" y="0px"
	 viewBox="0 0 56.4 56.4" style="enable-background:new 0 0 56.4 56.4;" xml:space="preserve">
<g>
	<path style="fill:#0AA5DF;" d="M0,28.2C0,12.7,12.6,0,28.2,0c15.6,0,28.2,12.6,28.2,28.1c0,15.6-12.6,28.2-28.2,28.2
		c-3.1,0-6-0.5-8.8-1.4c2-11.6,9.3-21.1,19-25.2c1.2,1.3,2.9,2.2,4.7,2.2c3.5,0,6.3-2.8,6.3-6.3c0-3.5-2.8-6.3-6.3-6.3
		c-3.5,0-6.3,2.8-6.3,6.3C24.5,29.5,14.5,38.1,9.4,49.2c-1.6-1.4-3.1-3.1-4.3-4.8c0.3-10.8,5.6-20.3,13.6-25.9
		c1.2,1.3,2.8,2.1,4.7,2.1c3.5,0,6.3-2.8,6.3-6.3c0-3.5-2.8-6.3-6.3-6.3c-3.5,0-6.3,2.8-6.3,6.3c0,0.2,0,0.4,0,0.5
		C9.7,17.5,3.6,22.7,0,29.3C0,29,0,28.6,0,28.2"/>
</g>
</svg>
