<?xml version="1.0" encoding="utf-8"?>
<!-- Generator: Adobe Illustrator 22.1.0, SVG Export Plug-In . SVG Version: 6.00 Build 0)  -->
<svg version="1.1" id="icon-mts" xmlns="http://www.w3.org/2000/svg" xmlns:xlink="http://www.w3.org/1999/xlink" x="0px" y="0px"
	 viewBox="0 0 612 792" style="enable-background:new 0 0 612 792;" xml:space="preserve">
<style type="text/css">
	.st0{fill:#0AA5DF;}
</style>
<path class="st0" d="M427,114.9c-59.9,18.8-76.7,85.7-81.2,133.5C411,265.9,459,325.3,459,396c0,84.5-68.5,153-153,153
	s-153-68.5-153-153C153,269.4,240.3,148.4,427,114.9C388.7,98.4,347.6,90,306,90C137,90,0,227,0,396c0,169,137,306,306,306
	c169,0,306-137,306-306C612,270,535.8,161.8,427,114.9L427,114.9z"/>
</svg>
