<?xml version="1.0" ?><!DOCTYPE svg  PUBLIC '-//W3C//DTD SVG 1.1//EN'  'http://www.w3.org/Graphics/SVG/1.1/DTD/svg11.dtd'><svg height="43.3492mm" style="shape-rendering:geometricPrecision; text-rendering:geometricPrecision; image-rendering:optimizeQuality; fill-rule:evenodd; clip-rule:evenodd" version="1.1" viewBox="0 0 4335 4335" width="43.3492mm" xml:space="preserve" xmlns="http://www.w3.org/2000/svg" xmlns:xlink="http://www.w3.org/1999/xlink"><defs><style type="text/css">
   <![CDATA[
    .fil3 {fill:#FEFEFE;fill-rule:nonzero}
    .fil1 {fill:#BCBCBC;fill-rule:nonzero}
    .fil0 {fill:url(#id0)}
    .fil2 {fill:url(#id1);fill-rule:nonzero}
   ]]>
  </style><linearGradient gradientUnits="userSpaceOnUse" id="id0" x1="2170.9" x2="2170.9" y1="4.27" y2="4339.19"><stop offset="0" style="stop-color:#59D6F1"/><stop offset="1" style="stop-color:#13ABCC"/></linearGradient><linearGradient gradientUnits="userSpaceOnUse" id="id1" x1="2287.86" x2="2287.86" y1="965.9" y2="3483.57"><stop offset="0" style="stop-color:#FEFEFE"/><stop offset="1" style="stop-color:whitesmoke"/></linearGradient></defs><g id="Warstwa_x0020_1"><rect class="fil0" height="4335" id="Prostokąt_x0020_3" width="4335" x="3" y="4"/><path class="fil1" d="M1702 3527c-359,0 -693,-105 -974,-286 50,6 100,9 152,9 298,0 572,-102 789,-272 -278,-5 -513,-189 -594,-441 39,7 79,11 120,11 58,0 114,-8 167,-22 -291,-58 -510,-315 -510,-623 0,-3 0,-5 0,-8 86,48 184,76 288,79 -171,-114 -283,-309 -283,-529 0,-116 31,-226 86,-320 313,385 782,638 1310,664 -11,-47 -16,-95 -16,-145 0,-351 285,-636 636,-636 183,0 348,77 464,201 145,-29 281,-81 404,-154 -47,148 -148,273 -279,352 129,-15 251,-50 365,-100 -85,127 -193,239 -317,329 1,27 2,55 2,82 0,840 -639,1808 -1808,1808z"/><path class="fil2" d="M1713 3484c-359,0 -693,-105 -974,-286 50,6 100,9 152,9 298,0 572,-102 789,-272 -278,-5 -513,-189 -594,-441 39,7 79,11 120,11 58,0 114,-8 167,-22 -291,-58 -510,-315 -510,-623 0,-3 0,-5 0,-8 86,48 184,76 288,79 -171,-114 -283,-309 -283,-529 0,-117 31,-226 86,-320 313,385 782,638 1310,664 -11,-47 -16,-95 -16,-145 0,-351 285,-636 636,-636 183,0 348,77 464,201 145,-29 281,-81 404,-154 -47,148 -148,273 -279,352 129,-15 251,-50 365,-100 -85,127 -193,239 -317,329 1,27 2,55 2,82 0,840 -639,1808 -1808,1808z"/><path class="fil3" d="M-5309 -290l-138 0 0 -80c-52,60 -97,90 -145,90 -43,0 -72,-20 -87,-56 -9,-22 -15,-56 -15,-107l0 -582 138 0 0 546c0,31 0,44 0,51 3,20 12,28 29,28 26,0 50,-23 80,-64l0 -560 138 0 0 735zm-626 -218c7,73 -15,109 -58,109 -43,0 -65,-36 -58,-109l0 -291c-7,-73 15,-107 58,-107 43,0 66,34 58,107l0 291zm138 -277c0,-79 -16,-138 -44,-175 -37,-50 -95,-71 -153,-71 -66,0 -116,21 -153,71 -28,37 -44,97 -44,175l0 261c0,78 14,132 42,169 37,50 96,77 155,77 58,0 119,-27 156,-77 28,-37 41,-91 41,-169l0 -262zm-546 95l0 400 -146 0 0 -400c0,0 -151,-491 -182,-582l153 0 102 383 102 -383 153 0 -182 582zm2456 -218c-22,0 -47,11 -69,33l0 441c22,22 47,33 69,33 38,0 55,-28 55,-101l0 -313c0,-73 -17,-94 -55,-94zm543 87c0,-67 -17,-87 -61,-87 -44,0 -63,19 -63,87l0 81 124 0 0 -79zm-60 420c32,0 51,-18 59,-53 1,-7 1,-39 1,-91l138 0 0 21c0,42 -4,73 -5,86 -4,29 -15,56 -31,79 -36,53 -91,79 -159,79 -69,0 -121,-25 -160,-75 -28,-36 -46,-91 -46,-168l0 -255c0,-78 16,-138 44,-175 38,-50 91,-76 158,-76 66,0 119,26 156,76 28,37 43,94 43,171l0 149 -262 0 0 131c0,67 19,101 64,101zm380 -270l0 -182c-1,-172 -22,-341 -22,-341 0,0 -21,-149 -86,-215 -83,-86 -175,-87 -218,-92 -304,-22 -760,-22 -760,-22l-1 0c0,0 -456,0 -760,22 -42,5 -135,5 -218,92 -65,66 -86,215 -86,215 0,0 -22,175 -22,350l0 164c0,175 22,350 22,350 0,0 21,149 86,215 83,86 191,83 240,92 174,17 739,22 739,22l0 0c14,0 461,-1 760,-23 42,-5 135,-5 218,-92 65,-66 86,-215 86,-215 0,0 21,-169 22,-341zm-670 162c0,67 -6,115 -15,146 -18,54 -56,82 -108,82 -47,0 -95,-28 -139,-83l0 73 -131 0 0 -975 131 0 0 318c43,-52 91,-82 139,-82 52,0 88,30 105,85 9,29 18,76 18,145l0 291zm-502 218l-138 0 0 -80c-52,60 -97,90 -145,90 -43,0 -72,-20 -87,-56 -9,-22 -15,-56 -15,-107l0 -575 138 0 0 539c0,31 0,44 0,51 3,20 12,28 29,28 26,0 50,-23 80,-64l0 -553 138 0 0 728zm-524 0l-146 0 0 -837 -153 0 0 -138 459 0 0 138 -160 0 0 837z"/></g></svg>